<svg width="100" height="100" viewBox="0 0 100 100" fill="none" xmlns="http://www.w3.org/2000/svg">
  <path d="M30.3 20C28.8 20.6 27.3 21.6 26.5 22.5C25.6 23.4 24.3 25.5 23.6 27.1C22.2 30.3 22.2 37.4 23.6 40.6C24.3 42.2 25.6 44.3 26.5 45.2C28.5 47.1 31.8 48.8 34.2 49C37.6 49.3 73.9 36.8 75.1 34.8C75.6 34 75.7 33.3 75.5 32.5C75.2 31.1 74.3 30.4 56 22.6C44.4 17.9 36.2 15.3 35 15.3C34.1 15.3 32.2 16.1 30.3 17.2V20Z" fill="#FF0000"/>
  <path d="M76.3 44.5C75.8 44.7 69.2 49.2 61.7 54.4C54.2 59.7 47.7 64.1 47.4 64.1C47 64.1 45.8 63.4 44.7 62.5C43.1 61.2 42.7 60.5 42.7 58.9C42.7 57.8 42.9 56.7 43.2 56.5C43.4 56.2 45.8 54.6 48.4 52.9C53.6 49.5 55.2 47.8 53.3 47.8C52.5 47.8 49.5 49.1 42.7 52.4C37.4 54.9 33 57.1 32.8 57.3C32.5 57.4 32.3 58.6 32.3 59.8C32.3 62 33.2 64.4 34.7 66.3C37.1 69.4 40.5 71.2 44.7 71.8C46.8 72.1 48 72 50.3 71.3C52.3 70.7 58.4 67.3 73.7 58.3C84.5 52 94.7 46.5 95.3 46.1C96.4 45.3 96.5 45.1 96 44.1C95.1 42.3 78.7 43.2 76.3 44.5Z" fill="#FF0000"/>
</svg>